<svg width="116" height="30" viewBox="0 0 116 30" fill="none" xmlns="http://www.w3.org/2000/svg">
<path d="M10.42 29.48C9.06 29.48 7.94 29.2933 7.06 28.92C6.18 28.5467 5.31333 28.0533 4.46 27.44C3.76667 26.9333 3.26 26.68 2.94 26.68C2.62 26.68 2.39333 26.8267 2.26 27.12C2.12667 27.3867 2.1 28.0133 2.18 29H1.74L0.7 19.68H1.22C1.38 20.72 1.74 21.9333 2.3 23.32C2.88667 24.7067 3.84667 25.9867 5.18 27.16C6.51333 28.3333 8.24667 28.92 10.38 28.92C11.7933 28.92 12.9933 28.64 13.98 28.08C14.9667 27.4933 15.7 26.7333 16.18 25.8C16.6867 24.8667 16.94 23.8533 16.94 22.76C16.94 21.3467 16.4467 20.0133 15.46 18.76C14.5 17.48 12.7933 16.28 10.34 15.16C8.18 14.1733 6.47333 13.2533 5.22 12.4C3.99333 11.52 3.1 10.6267 2.54 9.72C2.00667 8.78667 1.74 7.73333 1.74 6.56C1.74 5.6 1.99333 4.65333 2.5 3.72C3.00667 2.78666 3.76667 2.02667 4.78 1.44C5.82 0.853333 7.07333 0.559999 8.54 0.559999C9.39333 0.559999 10.1533 0.693332 10.82 0.959999C11.4867 1.22667 12.22 1.6 13.02 2.08C13.74 2.50667 14.2067 2.72 14.42 2.72C14.6333 2.72 14.78 2.58667 14.86 2.32C14.9667 2.05333 15.02 1.61333 15.02 0.999998H15.42L16.26 9.08H15.78C15.6467 7.93333 15.2333 6.73333 14.54 5.48C13.8467 4.2 12.9533 3.13333 11.86 2.28C10.7933 1.42666 9.64667 0.999998 8.42 0.999998C6.71333 0.999998 5.35333 1.50666 4.34 2.52C3.35333 3.53333 2.86 4.77333 2.86 6.24C2.86 7.73333 3.47333 9.05333 4.7 10.2C5.92667 11.32 7.9 12.48 10.62 13.68C13.18 14.8 15.0867 16.0667 16.34 17.48C17.62 18.8933 18.26 20.4933 18.26 22.28C18.26 23.7467 17.8867 25.0267 17.14 26.12C16.42 27.2133 15.46 28.0533 14.26 28.64C13.06 29.2 11.78 29.48 10.42 29.48ZM22.8703 5.4C22.497 5.4 22.1636 5.26667 21.8703 5C21.6036 4.70667 21.4703 4.37333 21.4703 4C21.4703 3.62667 21.6036 3.30666 21.8703 3.04C22.1636 2.74667 22.497 2.6 22.8703 2.6C23.2703 2.6 23.6036 2.74667 23.8703 3.04C24.137 3.30666 24.2703 3.62667 24.2703 4C24.2703 4.37333 24.137 4.70667 23.8703 5C23.6036 5.26667 23.2703 5.4 22.8703 5.4ZM20.8703 28.48C21.297 28.4533 21.6303 28.3333 21.8703 28.12C22.1103 27.88 22.2303 27.4267 22.2303 26.76V11.56C22.2303 10.92 21.977 10.6 21.4703 10.6C21.3636 10.6 21.177 10.6267 20.9103 10.68L19.7503 11V10.6L23.5103 9.2V26.76C23.5103 27.4267 23.6303 27.88 23.8703 28.12C24.1103 28.3333 24.4436 28.4533 24.8703 28.48L26.3103 28.6V29H19.4303V28.6L20.8703 28.48ZM45.4856 9.96C44.899 10.0133 44.379 10.16 43.9256 10.4C43.499 10.6133 43.0856 11.0133 42.6856 11.6L37.4456 18.96L42.8056 26.8C43.2056 27.3867 43.6056 27.8 44.0056 28.04C44.4056 28.2533 44.9123 28.3867 45.5256 28.44L46.5656 28.56V29H39.4856V28.56L40.3256 28.48C41.1523 28.4 41.5656 28.12 41.5656 27.64C41.5656 27.3467 41.4456 27.04 41.2056 26.72L36.6456 20.08L32.0056 26.64C31.7123 27.0667 31.5656 27.4 31.5656 27.64C31.5656 28.0933 31.979 28.36 32.8056 28.44L34.2056 28.56V29H27.0856V28.56L28.5656 28.44C29.1523 28.3867 29.659 28.2533 30.0856 28.04C30.539 27.8 30.9656 27.3867 31.3656 26.8L36.4056 19.72L30.8456 11.6C30.4456 11.0133 30.0456 10.6133 29.6456 10.4C29.2456 10.16 28.739 10.0133 28.1256 9.96L27.0856 9.84V9.4H34.1656V9.84L33.3256 9.92C32.499 10 32.0856 10.28 32.0856 10.76C32.0856 11.0533 32.2056 11.36 32.4456 11.68L37.2056 18.6L42.0456 11.76C42.339 11.3333 42.4856 11 42.4856 10.76C42.4856 10.3067 42.0723 10.04 41.2456 9.96L39.8456 9.84V9.4H46.9656V9.84L45.4856 9.96ZM55.1497 29.48C54.003 29.48 53.123 29.08 52.5097 28.28C51.923 27.4533 51.6297 26.3333 51.6297 24.92V9.88H47.7097V9.4H49.0297C50.0164 9.4 50.7097 9.22667 51.1097 8.88C51.5364 8.50667 51.7897 7.97333 51.8697 7.28L52.2697 4.24H52.9097V9.4H58.8697V9.88H52.9097V24.96C52.9097 26.2667 53.1497 27.2267 53.6297 27.84C54.1364 28.4267 54.7497 28.72 55.4697 28.72C56.003 28.72 56.5497 28.5733 57.1097 28.28C57.6964 27.9867 58.203 27.5867 58.6297 27.08L58.9497 27.2C58.4164 27.8667 57.8164 28.4133 57.1497 28.84C56.5097 29.2667 55.843 29.48 55.1497 29.48ZM68.0194 29.48C65.2727 29.48 63.126 28.52 61.5794 26.6C60.0594 24.68 59.2994 22.08 59.2994 18.8C59.2994 16.72 59.7127 14.9333 60.5394 13.44C61.366 11.9467 62.4194 10.8267 63.6994 10.08C65.006 9.30667 66.3794 8.92 67.8194 8.92C69.1527 8.92 70.3794 9.24 71.4994 9.88C72.646 10.4933 73.5527 11.3067 74.2194 12.32C74.886 13.3067 75.2194 14.3333 75.2194 15.4C75.2194 16.0133 75.1127 16.48 74.8994 16.8C74.7127 17.0933 74.366 17.2933 73.8594 17.4C73.3527 17.5067 72.5794 17.56 71.5394 17.56H60.7794C60.726 18.0933 60.6994 18.52 60.6994 18.84C60.6994 20.6533 61.006 22.2933 61.6194 23.76C62.2594 25.2267 63.1527 26.3867 64.2994 27.24C65.4727 28.0933 66.8327 28.52 68.3794 28.52C69.686 28.52 70.8194 28.1867 71.7794 27.52C72.766 26.8267 73.5394 26.0133 74.0994 25.08C74.686 24.1467 75.0994 23.2533 75.3394 22.4L75.7394 22.52C75.2594 24.0933 74.406 25.6533 73.1794 27.2C71.9527 28.72 70.2327 29.48 68.0194 29.48ZM71.0994 17.08C72.1394 17.08 72.8194 16.9733 73.1394 16.76C73.4594 16.5467 73.6194 16.0933 73.6194 15.4C73.6194 14.6267 73.406 13.76 72.9794 12.8C72.5527 11.84 71.8994 11.0267 71.0194 10.36C70.1394 9.66667 69.0594 9.32 67.7794 9.32C66.046 9.32 64.5394 9.98667 63.2594 11.32C62.006 12.6267 61.1927 14.5467 60.8194 17.08H71.0994ZM87.0028 29.48C84.2561 29.48 82.1095 28.52 80.5628 26.6C79.0428 24.68 78.2828 22.08 78.2828 18.8C78.2828 16.72 78.6961 14.9333 79.5228 13.44C80.3495 11.9467 81.4028 10.8267 82.6828 10.08C83.9895 9.30667 85.3628 8.92 86.8028 8.92C88.1361 8.92 89.3628 9.24 90.4828 9.88C91.6295 10.4933 92.5361 11.3067 93.2028 12.32C93.8695 13.3067 94.2028 14.3333 94.2028 15.4C94.2028 16.0133 94.0961 16.48 93.8828 16.8C93.6961 17.0933 93.3495 17.2933 92.8428 17.4C92.3361 17.5067 91.5628 17.56 90.5228 17.56H79.7628C79.7095 18.0933 79.6828 18.52 79.6828 18.84C79.6828 20.6533 79.9895 22.2933 80.6028 23.76C81.2428 25.2267 82.1361 26.3867 83.2828 27.24C84.4561 28.0933 85.8161 28.52 87.3628 28.52C88.6695 28.52 89.8028 28.1867 90.7628 27.52C91.7495 26.8267 92.5228 26.0133 93.0828 25.08C93.6695 24.1467 94.0828 23.2533 94.3228 22.4L94.7228 22.52C94.2428 24.0933 93.3895 25.6533 92.1628 27.2C90.9361 28.72 89.2161 29.48 87.0028 29.48ZM90.0828 17.08C91.1228 17.08 91.8028 16.9733 92.1228 16.76C92.4428 16.5467 92.6028 16.0933 92.6028 15.4C92.6028 14.6267 92.3895 13.76 91.9628 12.8C91.5361 11.84 90.8828 11.0267 90.0028 10.36C89.1228 9.66667 88.0428 9.32 86.7628 9.32C85.0295 9.32 83.5228 9.98667 82.2428 11.32C80.9895 12.6267 80.1761 14.5467 79.8028 17.08H90.0828ZM96.6859 28.48C97.1126 28.4533 97.4459 28.3333 97.6859 28.12C97.9259 27.88 98.0459 27.4267 98.0459 26.76V11.52C98.0459 10.88 97.7793 10.56 97.2459 10.56L96.7259 10.64L95.2459 11V10.6L99.3259 9.16V14.16C99.5393 13.1733 99.9926 12.28 100.686 11.48C101.379 10.68 102.193 10.0533 103.126 9.6C104.086 9.14667 105.059 8.92 106.046 8.92C107.913 8.92 109.419 9.56 110.566 10.84C111.739 12.0933 112.326 13.96 112.326 16.44V26.76C112.326 27.4267 112.446 27.88 112.686 28.12C112.926 28.3333 113.259 28.4533 113.686 28.48L115.126 28.6V29H108.246V28.6L109.686 28.48C110.113 28.4533 110.446 28.3333 110.686 28.12C110.926 27.88 111.046 27.4267 111.046 26.76V16.72C111.046 14.3733 110.526 12.64 109.486 11.52C108.473 10.4 107.179 9.84 105.606 9.84C104.406 9.84 103.326 10.1333 102.366 10.72C101.406 11.3067 100.659 12.12 100.126 13.16C99.5926 14.2 99.3259 15.3867 99.3259 16.72V26.76C99.3259 27.4267 99.4459 27.88 99.6859 28.12C99.9259 28.3333 100.259 28.4533 100.686 28.48L102.126 28.6V29H95.2459V28.6L96.6859 28.48Z" fill="#E7E7E7"/>
</svg>
